<svg width="711" height="803" viewBox="0 0 711 803" fill="none" xmlns="http://www.w3.org/2000/svg">
<path fill-rule="evenodd" clip-rule="evenodd" d="M558.339 64.0971C556.726 64.2172 555.118 64.3718 553.515 64.5615C544.556 42.6169 525.515 26.6713 504.24 16.5167C480.164 5.02484 450.789 -0.370899 421.698 1.16194C391.101 2.7741 359.061 12.3675 333.469 32.0981C328.465 25.6257 322.659 20.1309 316.122 15.6632C302.245 6.17801 286.362 2.19885 270.568 2.0277C239.549 1.69157 207.048 15.8879 181.928 36.0263C156.895 56.0943 135.769 84.8539 131.945 116.96C131.548 120.292 131.343 123.61 131.332 126.906C119.847 124.834 108.278 125.809 97.2445 129.504C74.2826 137.196 55.9775 155.813 45.5146 177.216C34.9684 198.789 31.2463 225.513 40.5869 250.728C43.063 257.413 46.3783 263.781 50.5381 269.754C34.1029 292.999 29.9633 319.063 35.1756 343.992C41.1778 372.699 59.2144 398.676 82.0364 417.837C99.9498 432.877 122.528 444.842 146.556 450.39L148.077 450.526C173.517 452.793 191.864 453.978 209.573 448.48C227.066 443.049 244.725 430.794 267.575 404.259L271.089 400.178L275.752 402.872C278.789 404.627 281.716 406.398 284.624 408.157C292.981 413.213 301.176 418.17 311.353 422.366C323.951 427.56 339.499 431.488 361.139 431.954C366.413 431.767 371.802 431.218 377.284 430.25C386.421 443.854 399.636 453.551 413.838 460.348C433.158 469.594 455.902 474.318 477.7 476.568C511.607 480.067 546.379 477.874 569.245 474.829C571.995 481.979 574.664 489.8 577.409 498.118C578.227 500.597 579.055 503.128 579.892 505.691L579.907 505.737L579.908 505.739C583.643 517.169 587.585 529.231 591.879 540.236C597.09 553.588 603.546 567.379 612.329 578.062C621.447 589.151 634.519 598.5 652.156 598.5C673.313 598.5 686.97 583.015 694.541 566.65C702.254 549.979 706.443 527.382 707.514 500.758C709.579 449.453 700.253 377.743 674.888 290.227C703.868 261.427 714.15 226.908 710.136 193.275C705.813 157.061 685.218 123.741 658.03 100.258C630.861 76.7906 595.009 61.3683 558.339 64.0971ZM329.011 441.407C320.571 439.584 313.144 437.166 306.398 434.384C300.616 432.001 295.316 429.331 290.363 426.594L197.651 554.836L191.543 563.285L194.972 573.131L213.859 566.554C194.972 573.131 194.972 573.131 194.972 573.132L194.972 573.134L194.975 573.142L194.988 573.178L195.039 573.324L195.239 573.901C195.415 574.408 195.674 575.154 196.003 576.105C196.662 578.009 197.603 580.733 198.728 584.009C200.98 590.567 203.962 599.314 206.898 608.109C209.013 614.446 211.079 620.736 212.823 626.219C206.199 628.491 198.287 631.133 190.334 633.757C180.533 636.99 170.763 640.164 163.438 642.532C159.777 643.716 156.73 644.696 154.6 645.381C153.535 645.723 152.7 645.991 152.131 646.174L151.483 646.381L151.319 646.434L151.278 646.447L151.268 646.45L151.265 646.451C151.265 646.451 151.265 646.451 157.359 665.5L151.265 646.451L132.437 652.475L138.24 671.371L138.241 671.372L138.243 671.379L138.253 671.412L138.295 671.549L138.325 671.649L138.462 672.097C138.61 672.58 138.827 673.294 139.104 674.207C139.657 676.033 140.446 678.651 141.385 681.807C143.266 688.127 145.735 696.557 148.111 705.065C150.128 712.291 152.025 719.388 153.433 725.233C151.284 726.222 148.888 727.305 146.28 728.462C134.555 733.667 119.036 740.165 103.361 746.114C87.5426 752.116 72.181 757.323 60.5556 760.179C58.2394 760.748 56.223 761.185 54.4962 761.511C54.0589 760.232 53.6082 758.841 53.1473 757.345C51.1368 750.82 49.1701 743.088 47.4186 735.501C45.678 727.962 44.2055 720.81 43.1659 715.528L43.1081 715.234L232.935 452.27C226.439 456.039 219.991 458.857 213.427 460.895C200.773 464.824 187.983 465.738 174.167 465.339L5.64277 698.794L0.68619 705.66L2.16733 713.998L21.859 710.5C2.16733 713.998 2.16757 713.999 2.16784 714.001L2.16858 714.005L2.17073 714.017L2.17774 714.056L2.20246 714.194C2.22365 714.312 2.25422 714.482 2.29386 714.7C2.37312 715.137 2.48868 715.768 2.63795 716.57C2.93637 718.174 3.37023 720.466 3.91882 723.253C5.01345 728.815 6.57698 736.413 8.44382 744.499C10.2996 752.537 12.5117 761.305 14.9206 769.123C17.1288 776.29 20.1318 784.837 24.1126 790.934C28.4216 797.534 34.756 800.134 38.6998 801.184C42.7506 802.262 46.716 802.388 49.8238 802.282C56.1172 802.069 63.2377 800.71 70.1003 799.024C84.1019 795.583 101.254 789.696 117.552 783.511C133.994 777.272 150.195 770.489 162.51 765.022C168.656 762.294 173.958 759.838 177.903 757.902C179.848 756.947 181.652 756.026 183.129 755.206C183.845 754.809 184.726 754.303 185.599 753.734L185.604 753.731C185.732 753.653 188.582 751.912 190.925 748.977C194.052 745.059 194.89 741.054 195.153 739.634C195.497 737.779 195.55 736.177 195.553 735.174C195.558 733.135 195.339 731.181 195.139 729.724C194.721 726.675 193.988 723.083 193.172 719.496C191.512 712.19 189.077 703.049 186.638 694.31C185.107 688.827 183.545 683.399 182.121 678.526C188.369 676.499 195.602 674.139 202.865 671.743C212.745 668.484 222.772 665.128 230.458 662.444C234.272 661.112 237.68 659.886 240.255 658.893C241.504 658.411 242.827 657.88 243.992 657.352C244.538 657.105 245.407 656.699 246.343 656.17C246.798 655.913 247.596 655.445 248.506 654.783L248.532 654.764C249.099 654.352 251.408 652.674 253.401 649.741C255.984 645.94 256.55 642.287 256.714 641.106C256.937 639.505 256.926 638.19 256.902 637.465C256.854 635.988 256.664 634.74 256.552 634.072C256.309 632.616 255.954 631.122 255.642 629.897C254.986 627.323 254.035 624.064 252.963 620.563C250.795 613.476 247.813 604.352 244.84 595.445C241.855 586.503 238.833 577.638 236.56 571.019L236.157 569.847L329.011 441.407ZM293.551 48.6867C297.819 51.6036 301.957 55.8575 305.477 62.0937C296.392 75.8248 289.562 92.1122 285.865 111.196C283.764 122.041 290.852 132.534 301.696 134.635C312.541 136.736 323.034 129.648 325.135 118.804C335.067 67.531 377.339 43.5547 423.802 41.1065C446.961 39.8863 469.586 44.2985 487.01 52.6153C501.152 59.3655 510.367 67.8696 515.048 76.6682C494.333 87.7738 475.734 106.245 461.009 132.801C455.653 142.462 459.141 154.635 468.801 159.991C478.461 165.347 490.635 161.859 495.991 152.199C514.794 118.288 538.731 105.667 561.307 103.987C584.97 102.226 610.721 112.251 631.883 130.53C653.028 148.793 667.493 173.52 670.417 198.016C673.221 221.498 665.725 246.558 639.357 268.516C639.414 268.469 639.36 268.496 639.171 268.59C638.433 268.959 635.633 270.358 629.314 272.388C622.375 274.617 613.563 276.904 603.653 279.287C598.458 280.537 592.912 281.82 587.263 283.128L587.263 283.128C572.232 286.607 556.473 290.255 544.645 293.876C492.802 309.747 441.599 345.671 429.29 355.16L428.092 356.083L427.046 357.176C408.927 376.121 391.816 385.451 376.713 389.45C361.576 393.459 347.153 392.457 333.928 388.728C316.581 383.837 301.779 374.37 291.667 366.313C297.149 354.151 300.305 343.412 301.958 333.834C323.814 330.275 353.708 322.551 380.548 308.745C414.848 291.103 450.356 259.889 447.467 209.734C446.832 198.707 437.377 190.283 426.35 190.918C415.322 191.553 406.898 201.007 407.533 212.035C409.044 238.261 391.552 258.104 362.252 273.175C341.82 283.684 318.641 290.103 300.783 293.437C295.212 269.756 282.589 250.967 277.477 243.358C276.512 241.922 275.815 240.884 275.483 240.287C270.119 230.632 257.943 227.153 248.287 232.517C238.632 237.881 235.153 250.057 240.517 259.713C242.05 262.472 243.937 265.426 245.965 268.602L245.966 268.603C253.705 280.719 263.5 296.055 263.5 316C263.5 325.178 261.574 339.071 250 360.289L231.327 386.157C229.34 388.348 227.227 390.564 224.978 392.803C192.844 424.8 144.008 417.639 107.757 387.203C90.1168 372.393 78.0914 353.801 74.3289 335.806C71.6459 322.974 72.9677 309.842 80.3919 297.192C88.2536 301.958 97.1479 306.076 107.082 309.442C117.543 312.987 128.897 307.38 132.442 296.918C135.987 286.457 130.38 275.103 119.918 271.558C94.293 262.875 82.7301 249.344 78.0962 236.834C73.2449 223.737 74.7641 208.461 81.4503 194.784C88.2197 180.936 99.1382 171.054 109.949 167.433C119.497 164.235 131.006 165.107 143.618 177.032C146.042 179.324 148.889 180.892 151.89 181.742C159.861 191.262 170.2 200.098 182.997 207.995C192.397 213.796 204.719 210.878 210.52 201.478C216.321 192.079 213.403 179.756 204.003 173.955C175.704 156.492 169.761 137.668 171.664 121.691C173.825 103.556 186.792 83.3932 206.947 67.2356C227.014 51.1484 250.795 41.8158 270.135 42.0254C279.521 42.1271 287.337 44.4394 293.551 48.6867ZM47.8058 762.305C47.8059 762.305 47.8182 762.305 47.8422 762.308C47.8176 762.306 47.8057 762.305 47.8058 762.305ZM227.476 620.921C227.513 620.904 227.521 620.901 227.492 620.914L227.476 620.921ZM431.105 424.267C425.583 421.624 421.031 418.72 417.363 415.562C430.009 408.368 442.555 398.63 454.837 385.982C467.627 376.348 512.792 345.46 556.355 332.124C566.761 328.938 580.274 325.81 594.709 322.469L594.714 322.468C600.705 321.081 606.855 319.658 613.007 318.178C622.201 315.967 631.336 313.636 639.267 311.189C661.684 391.376 669.315 455.201 667.547 499.15C666.576 523.259 662.828 539.935 658.238 549.854C655.977 554.741 653.935 557.065 652.802 558.012C652.539 558.231 652.344 558.361 652.224 558.432C652.171 558.464 652.13 558.486 652.102 558.5C650.24 558.489 647.51 557.868 643.227 552.658C638.568 546.992 633.951 538.015 629.142 525.693C625.297 515.841 621.794 505.127 618.078 493.764L618.078 493.763C617.198 491.072 616.306 488.344 615.394 485.582C610.784 471.612 605.695 456.839 599.554 443.951L592.795 429.768L577.416 432.975C561.587 436.275 520.765 440.8 481.807 436.779C462.347 434.771 444.656 430.752 431.105 424.267Z" fill="black"/>
</svg>
